<svg width="281" height="281" viewBox="0 0 281 281" fill="none" xmlns="http://www.w3.org/2000/svg">
<circle cx="140.871" cy="43.5616" r="13.8859" fill="#333333" stroke="black" stroke-width="2"/>
<rect x="128.5" y="55.1194" width="24.339" height="1.73029" rx="0.865147" fill="#333333" stroke="black" stroke-width="1.73029"/>
<path d="M103.064 203.425V199.402C112.576 188.446 118.335 174.139 118.335 158.491C118.335 145.714 114.496 133.83 107.908 123.935H173.431C166.843 133.83 163.004 145.714 163.004 158.491C163.004 174.139 168.762 188.446 178.275 199.402V203.425H103.064Z" fill="#333333" stroke="black" stroke-width="2"/>
<path fill-rule="evenodd" clip-rule="evenodd" d="M140.669 55.9845H133.262L102.284 100.521C99.575 105.154 97.7833 116.123 112.289 122.935H140.669H169.05C183.555 116.123 181.763 105.154 179.054 100.521L148.077 55.9845H140.669Z" fill="#333333"/>
<path d="M133.262 55.9845V54.9845H132.739L132.441 55.4135L133.262 55.9845ZM102.284 100.521L101.463 99.9495L101.441 99.9818L101.421 100.016L102.284 100.521ZM112.289 122.935L111.864 123.84L112.066 123.935H112.289V122.935ZM169.05 122.935V123.935H169.273L169.475 123.84L169.05 122.935ZM179.054 100.521L179.918 100.016L179.898 99.9818L179.875 99.9495L179.054 100.521ZM148.077 55.9845L148.898 55.4135L148.599 54.9845H148.077V55.9845ZM133.262 56.9845H140.669V54.9845H133.262V56.9845ZM103.105 101.092L134.082 56.5555L132.441 55.4135L101.463 99.9495L103.105 101.092ZM112.714 122.03C105.679 118.726 102.743 114.497 101.802 110.672C100.849 106.797 101.898 103.162 103.147 101.025L101.421 100.016C99.9612 102.512 98.7598 106.678 99.8599 111.15C100.972 115.671 104.393 120.332 111.864 123.84L112.714 122.03ZM140.669 121.935H112.289V123.935H140.669V121.935ZM140.669 123.935H169.05V121.935H140.669V123.935ZM169.475 123.84C176.945 120.332 180.366 115.671 181.479 111.15C182.579 106.678 181.377 102.512 179.918 100.016L178.191 101.025C179.441 103.162 180.49 106.797 179.536 110.672C178.595 114.497 175.66 118.726 168.625 122.03L169.475 123.84ZM179.875 99.9495L148.898 55.4135L147.256 56.5555L178.233 101.092L179.875 99.9495ZM148.077 54.9845H140.669V56.9845H148.077V54.9845Z" fill="black"/>
<rect x="99.4049" y="123.935" width="82.5286" height="9.22081" rx="4.61041" fill="#333333" stroke="black" stroke-width="2"/>
<rect x="91.9965" y="205.425" width="97.3452" height="12.9595" fill="#333333" stroke="black" stroke-width="2"/>
<rect x="78.9652" y="220.385" width="123.408" height="13.707" fill="#333333" stroke="black" stroke-width="2"/>
<rect x="70.6581" y="236.092" width="140.022" height="13.707" fill="#333333" stroke="black" stroke-width="2"/>
</svg>
